<?xml version="1.0" standalone="no"?>
<!DOCTYPE svg PUBLIC "-//W3C//DTD SVG 20010904//EN"
 "http://www.w3.org/TR/2001/REC-SVG-20010904/DTD/svg10.dtd">
<svg version="1.0" xmlns="http://www.w3.org/2000/svg"
 width="1152.000000pt" height="997.000000pt" viewBox="0 0 1152.000000 997.000000"
 preserveAspectRatio="xMidYMid meet">

<g transform="translate(0.000000,997.000000) scale(0.100000,-0.100000)"
fill="#000000" stroke="none">
<path d="M2932 6624 l3 -285 705 -359 705 -358 3 -126 c1 -69 0 -126 -4 -126
-4 0 -70 33 -148 74 -77 40 -379 194 -671 341 -291 147 -545 277 -562 287
l-33 20 0 -290 0 -290 348 -176 c191 -96 509 -258 707 -359 l360 -183 3 -829
2 -830 255 -128 255 -127 0 1528 0 1527 -328 166 c-180 92 -611 311 -958 488
-348 176 -635 321 -638 321 -4 0 -5 -129 -4 -286z"/>
<path d="M6038 6423 c-734 -373 -958 -491 -962 -507 -9 -32 -7 -3036 2 -3036
4 0 120 58 257 128 l250 128 3 830 2 829 278 140 c152 77 472 239 710 360
l432 220 0 282 c0 206 -3 283 -11 283 -7 0 -89 -40 -183 -89 -94 -49 -409
-209 -699 -356 l-528 -267 3 128 3 128 708 359 707 359 0 284 c0 156 -3 284
-7 284 -5 0 -439 -219 -965 -487z"/>
</g>
</svg>
